<svg xmlns="http://www.w3.org/2000/svg"  viewBox="0 0 48 48" width="48px" height="48px"><rect width="36" height="36" x="6" y="6" fill="#6c19ff"/><circle cx="15" cy="15" r="2" fill="#ddbaff"/><circle cx="22" cy="15" r="3" fill="#ddbaff"/><circle cx="31" cy="14" r="4" fill="#ddbaff"/><path fill="#ddbaff" d="M37,38V27c0-3.313-2.687-6-6-6s-6,2.687-6,6v11H37z"/><path fill="#ddbaff" d="M27,32v-7.2c0-2.65-2.238-4.8-5-4.8c-2.76,0-5,2.15-5,4.8V32H27z"/><path fill="#ddbaff" d="M19,29v-6.16c0-2.12-1.79-3.84-4-3.84c-2.208,0-4,1.72-4,3.84V29H19z"/><path fill="#fff" d="M27,24.8c0-0.665-0.141-1.298-0.396-1.874C25.612,23.997,25,25.425,25,27v5h2V24.8z"/><path fill="#fff" d="M19,22.84c0-0.562-0.133-1.092-0.359-1.573C17.64,22.145,17,23.396,17,24.8V29h2V22.84z"/></svg>